<?xml version="1.0" encoding="UTF-8"?>
<!-- Generator: Adobe Illustrator 21.0.0, SVG Export Plug-In . SVG Version: 6.00 Build 0)  -->
<svg version="1.1" id="图层_1" xmlns="http://www.w3.org/2000/svg" xmlns:xlink="http://www.w3.org/1999/xlink" x="0px" y="0px" viewBox="0 0 62 34" style="enable-background:new 0 0 62 34;" xml:space="preserve">
<style type="text/css">
	.st0{fill:#FFFFFF;}
</style>
<path class="st0" d="M31,3c-6.9,0-12.6,5.2-13.4,12c0,0-0.1,0-0.1,0c-4.1,0-7.5,3.4-7.5,7.5s3.4,7.5,7.5,7.5H43c5,0,9-4,9-9  c0-4.7-3.6-8.6-8.3-9C41.8,6.6,36.7,3,31,3z M36.3,12.1c0.1,0.3,0,0.4-0.1,0.5c-0.2,0.1-0.4,0.2-0.6,0.3s-0.4,0.2-0.6,0.3  s-0.4,0.2-0.6,0.4c-0.2,0.1-0.5,0.3-0.7,0.5c0.1-0.1,0.2-0.3,0.4-0.6c0.2-0.2,0.4-0.5,0.6-0.7s0.4-0.5,0.6-0.7  c0.2-0.2,0.4-0.4,0.5-0.5c-0.3-0.2-0.6-0.3-1.1-0.4c-0.5-0.1-1-0.1-1.5,0c-0.5,0.1-1.1,0.2-1.7,0.3c-0.6,0.2-1.2,0.4-1.7,0.7  c-0.3,0.2-0.6,0.4-0.9,0.6c-0.2,0.2-0.4,0.5-0.6,0.8c-0.1,0.3-0.2,0.5-0.3,0.8c0,0.3,0,0.5,0.1,0.6c0.2,0.3,0.4,0.5,0.7,0.7  c0.3,0.1,0.7,0.2,1.1,0.3c0.3,0,0.5,0,0.8,0.1c0.2,0,0.5,0,0.9,0.1c0.3,0,0.7,0,1.2,0c0.5,0,1,0,1.7,0c0.3,0,0.5,0.1,0.6,0.4  c0.1,0.2,0,0.4-0.2,0.5c-0.2,0.1-0.5,0.2-0.8,0.3c-0.5,0.1-1.1,0.2-1.7,0.4c-0.6,0.2-1.2,0.4-1.8,0.6s-1.1,0.5-1.5,0.7  c-0.5,0.3-0.8,0.6-1.1,0.9c-0.3,0.4-0.5,0.8-0.6,1.2c-0.1,0.4,0,0.8,0.2,1.1c0.2,0.3,0.5,0.6,0.9,0.7s0.9,0.2,1.6,0.2  c1.6-0.1,3-0.5,4-1.1c1-0.6,1.7-1.6,2.1-2.8c0.1,0.7,0.1,1.2,0,1.6c-0.1,0.4-0.3,0.8-0.6,1.1c-0.2,0.2-0.5,0.5-0.9,0.7  c-0.4,0.2-0.8,0.4-1.4,0.6c-0.5,0.2-1.1,0.3-1.7,0.4c-0.6,0.1-1.2,0.2-1.8,0.2c-0.8,0-1.5-0.2-2.1-0.6c-0.6-0.4-0.9-0.9-1-1.6  c0-0.3,0-0.7,0.1-1c0.1-0.3,0.2-0.7,0.5-1s0.6-0.7,1-1c0.4-0.3,0.9-0.6,1.5-0.9c0.4-0.2,0.8-0.3,1.2-0.5s0.9-0.3,1.5-0.4  c0.1,0,0.2-0.1,0.2-0.2c0-0.1-0.1-0.1-0.3-0.1c-0.9,0-1.5,0-2.1-0.1c-0.5,0-1-0.1-1.4-0.2c-0.3-0.1-0.6-0.3-0.9-0.5  c-0.2-0.2-0.4-0.5-0.5-0.8c-0.1-0.3-0.1-0.6-0.1-1c0-0.3,0.1-0.7,0.3-1c0.3-0.6,0.8-1.1,1.4-1.4c0.6-0.4,1.4-0.7,2.3-0.9  c0.4-0.1,0.8-0.2,1.2-0.2s0.8-0.1,1.2-0.1c0.4,0,0.8,0,1.1,0s0.6,0.1,0.8,0.1c0.3,0.1,0.4,0.2,0.5,0.3c0,0,0,0.1,0.1,0.2  c0,0.1,0.1,0.3,0.1,0.4L36.3,12.1z"/>
<style xmlns="http://www.w3.org/1999/xhtml" type="text/css"></style></svg>